<?xml version="1.0" encoding="utf-8"?>
<!-- Generator: Adobe Illustrator 22.0.1, SVG Export Plug-In . SVG Version: 6.00 Build 0)  -->
<svg version="1.1" id="Livello_1" xmlns="http://www.w3.org/2000/svg" xmlns:xlink="http://www.w3.org/1999/xlink" x="0px" y="0px"
	 viewBox="0 0 1000 1000" style="enable-background:new 0 0 1000 1000;" xml:space="preserve">
<style type="text/css">
	.st0{fill:#174853;}
</style>
<g>
	<path d="M118.5,772.2c0-14.2,12-25.9,43-25.9c20,0,41.7,5.8,62.7,17.8l16.2-39.8c-21-13.3-50.1-20-78.6-20
		c-64.3,0-95.4,32-95.4,70.5c0,84.1,131.6,55,131.6,97.3c0,13.9-12.6,24.3-43.7,24.3c-27.2,0-55.6-9.7-74.7-23.6l-17.8,39.4
		c20,15.5,56.3,26.2,92.2,26.2c64.7,0,96-32.3,96-70.2C250.1,785.2,118.5,814,118.5,772.2z"/>
	<polygon points="382,808.8 321.5,708.2 265.9,708.2 353.5,853.7 353.5,934.6 405.9,934.6 405.9,854.4 493.9,708.2 442.5,708.2 	"/>
	<path d="M633.6,749c22.6,0,41.7,9.1,56.9,26.5l33.6-31c-21.3-25.9-54-40.1-93.1-40.1c-70.5,0-122.9,48.8-122.9,117
		c0,68.2,52.4,117.1,122.5,117.1c39.4,0,72.1-14.2,93.4-40.4l-33.6-31c-15.2,17.8-34.3,26.8-56.9,26.8c-42.4,0-72.4-29.7-72.4-72.4
		S591.2,749,633.6,749z"/>
	<path d="M812.4,772.2c0-14.2,12-25.9,43-25.9c20,0,41.7,5.8,62.7,17.8l16.2-39.8c-21-13.3-50.1-20-78.6-20
		c-64.3,0-95.4,32-95.4,70.5c0,84.1,131.6,55,131.6,97.3c0,13.9-12.6,24.3-43.7,24.3c-27.2,0-55.6-9.7-74.7-23.6l-17.8,39.4
		c20,15.5,56.3,26.2,92.2,26.2c64.7,0,96-32.3,96-70.2C944,785.2,812.4,814,812.4,772.2z"/>
	<path d="M286,562.3c-16.8,0.2-33.5,0.4-50.3,0.6c53.1,47.1,127.3,69.4,197.6,59.5c-61.4-21-118.3-70.2-150-126.8
		C252.1,440,241.9,372.9,255,310.5c-9.5,63.5,4.9,130.2,39.7,184.1c35.2,54.5,95,100,157.7,117.2c-69.1-55.8-55.9-97.8-83.3-141.4
		c2.2,13,3,26.2,2.5,39.4c-63-51.8-105.2-120.3-116.2-201.1c0.1-0.5,0.2-0.9,0.3-1.4C237,349,225,393.8,220.1,439.3
		c-1.8,16.7-2.6,33.8,1.8,49.9C230.7,521.2,258.3,544.1,286,562.3z"/>
	<path d="M629,509.7c-0.5-13.2,0.3-26.4,2.5-39.4c-27.4,43.6-14.1,85.6-83.3,141.4c62.6-17.1,122.4-62.6,157.7-117.2
		c34.8-53.9,49.2-120.6,39.7-184.1c13.1,62.5,2.8,129.5-28.4,185.2c-31.7,56.6-88.6,105.8-150,126.8c70.3,9.9,144.5-12.4,197.6-59.5
		c-16.8-0.2-33.5-0.4-50.3-0.6c27.7-18.2,55.3-41.1,64.1-73.1c4.4-16.2,3.6-33.3,1.8-49.9c-4.9-45.5-17-90.3-35.6-132.1
		c0.1,0.5,0.2,0.9,0.3,1.4C734.2,389.4,692,458,629,509.7z"/>
	<path d="M327.2,390.7l29.5-7.9c3.5,16.3,9.4,31.4,17.5,45.1l-1.3-2.1l-23.1,13.9l4.8,8l23.1-13.9l-2.4-4
		c23.7,38.9,64.6,65.5,113.5,71.2c0,9.5-1.8,19.3-2.1,28.7c-0.3,11.3,0.3,22.5,2,33.7c3.3,21.5,11.3,41.9,25.5,58.6
		c1.5,1.7,4.7-0.1,3.9-2.3c-6.8-18-15.3-43.5,3.2-57.8c1.4-1.1,1.5-2.9,0-4c-11.7-8.2-13.3-23.1-12.7-36.3
		c0.3-6.5,1.1-12.9,1.3-19.4c0.4,0,0.8,0,1.1,0c49.5-0.7,94.2-28.2,120.5-68.2l22.9,13.8l4.8-8L636.5,426
		c7.6-13.3,13.3-27.8,16.5-43.1l29,7.8l2.4-9l-29.7-8c1-7.4,1.5-14.8,1.4-22.4c0.1-6.1-0.2-12.1-0.8-18.1l24.7-6.8l-2.5-9l-23.5,6.5
		c-2.1-12.2-5.7-24-10.6-35.2l24.4-15.7l-5.1-7.8l-23.4,15.1c-9.9-19.1-23.9-35.9-41-49.3l77.9-90.1c3.3-4.8-0.1-11.3-5.9-11.3
		h-22.4c-2.7,0-5.1,1.5-6.4,3.8l-55.7,88.8c-4-2.5-8.1-4.8-12.4-6.9l59-106.4c2.3-4.8-1.2-10.3-6.5-10.3h-23.7c-3.1,0-5.9,2-6.8,5
		l-38.9,104.6c-3.7-1.3-7.5-2.5-11.3-3.5l31.4-112.5c1.3-4.6-2.2-9.1-6.9-9.1h-24.4c-3.7,0-6.8,2.8-7.2,6.5L527.2,201
		c-5.5-0.8-11-1.3-16.7-1.4l11.9-124.8c0.5-4.3-2.9-8-7.2-8h-24.6c-4.2,0-7.5,3.6-7.2,7.7l8.2,125.6c-5.1,0.5-10.2,1.2-15.2,2.1
		L465.4,88.8c-0.4-3.7-3.5-6.5-7.2-6.5h-24.4c-4.8,0-8.2,4.5-6.9,9.1L459,206.5c-3.7,1.2-7.4,2.5-11,3.9l-40-107.7c-1-3-3.7-5-6.8-5
		h-23.7c-5.3,0-8.8,5.6-6.5,10.3L432,218c-4.1,2.2-8.1,4.6-11.9,7.2l-58-92.5c-1.2-2.4-3.7-3.8-6.4-3.8h-22.4
		c-5.8,0-9.2,6.5-5.9,11.3l81.1,93.7c-15.7,12.8-28.7,28.7-38.1,46.5l-23.7-15.3l-5,7.8l24.7,15.9c-5,11.1-8.6,22.8-10.8,35.1
		l-23.6-6.5l-2.5,9l24.7,6.8c-0.7,6.1-1,12.2-0.9,18.4c0.1,7.5,0.7,14.8,1.8,21.9l-30.2,8.1L327.2,390.7z M403.9,284.9
		c1.9-7.5,7.3-11.4,14.4-13.2c6.2-1.5,10.6,0.7,12.6,7c0.7,2,1.3,4.5,3.9,4.6c1,0,2.6-1.5,2.9-2.6c4.2-18.7,20.8-19.2,34.6-22.6
		c6.7-1.7,13.8-3.3,20.8-4.3c10.6-1.5,5.1-11.8,4.8-18.1c-0.3-4.7-4.8-8-10.6-5.2c-4.2,2-8.9,3-12.3,6.5c-1.2,1.2-3.4,1.8-4.9,0.2
		c-1.9-2-0.7-3.9,0.7-5.7c4.9-6.4,12.1-5.6,18.8-5.7c4-0.1,7.4,3.2,12.3,0.5c3.6-2,3.1,3.6,4,5.9c4.5,11.3,6.9,11.8,15.6,3.7
		c5-4.7,10.4-8.9,15.7-13.1c4.1-3.2,8.4-1.3,12.4,0.3c5.4,2.1,10.6,4.7,15.9,7c4.4,1.9,7,3.8,5,9.7c-2.4,7.1,2.8,11.1,8.3,14.7
		c4.1,2.6,9.3,4.7,8.2,11.4c-1,6.2-5.9,7.4-10.8,9c-10.8,3.5-10.3,8.2,2.7,20c-7.9,2.7-12.8,9.1-19.7,12.9
		c-4.4,2.4-6.3,6.7-6.7,11.7c-0.3,3.9-0.8,7.9-1.8,11.7c-5.4,21.4,7.1,37.4,29.7,37.7c17.2,0.2,18.3,1.6,16,18.5
		c-0.3,2.5-0.7,5.3,0.2,7.5c3.2,8.5,0.7,15.4-5,21.9c-3.8,4.3-4.5,9.6-3.9,15.3c1.5,15.4-9.4,33.8-23.6,40.6
		c-38.3,18.2-76.9,17.9-115.6,1.5c-4.6-2-9.1-4.3-12.8-7.8c5.1-1.7,4.9-5.8,3.9-9.7c-2.7-10.4,2-17.7,10-23.1
		c6.1-4.2,11.2-9,14.9-15.5c1-1.9,2.3-4.4,4-5c14.9-5.3,19.8-18.8,27-30.8c6.5-10.8,6.3-16.8-5-21.5c-8.4-3.5-12.9-9.3-17.5-16.5
		c-9.4-14.7-25.1-21.1-40.3-27.8c-1.1-0.5-2.9-0.1-4.2,0.3c-14.1,3.9-20.2-1.4-16.5-15.7c1.5-6,3.4-9.5-4.8-10.2
		C404.2,290.5,403.2,287.6,403.9,284.9z M396.2,299.7c8,7.5,10.5,18.7,16.6,27.6c2.3,3.4-0.6,7.5-2.9,10.9
		c-9.6,14.6-9.2,24.8,2.4,37c7.9,8.3,9.2,17.8,8.4,28.6c-0.8,10.4-1,20.9-0.8,31.4c0.2,12.5,6.2,22.4,15.1,30.7
		c-39-22.7-59.8-57.4-64.3-101.6c-3.3-32.1,2.7-55.5,18.2-81.4C388.2,291.3,391.7,295.5,396.2,299.7z"/>
</g>
</svg>
