<?xml version="1.0" encoding="utf-8"?>
<!-- Generator: Adobe Illustrator 22.0.1, SVG Export Plug-In . SVG Version: 6.00 Build 0)  -->
<svg version="1.1" id="Livello_1" xmlns="http://www.w3.org/2000/svg" xmlns:xlink="http://www.w3.org/1999/xlink" x="0px" y="0px"
	 viewBox="0 0 1000 1000" style="enable-background:new 0 0 1000 1000;" xml:space="preserve">
<style type="text/css">
	.st0{fill:#174853;}
</style>
<g>
	<g>
		<path d="M462.1,393.3l4.9-11c5.3,3.9,13.2,6.6,20.8,6.6c8.6,0,12.1-2.9,12.1-6.7c0-11.8-36.6-3.7-36.6-27.1
			c0-10.7,8.6-19.6,26.5-19.6c7.9,0,16,1.9,21.9,5.6l-4.5,11.1c-5.8-3.3-11.9-4.9-17.5-4.9c-8.6,0-12,3.2-12,7.2
			c0,11.6,36.6,3.6,36.6,26.7c0,10.5-8.7,19.5-26.7,19.5C477.8,400.6,467.7,397.6,462.1,393.3z"/>
		<path d="M525,368c0-19,14.6-32.6,34.2-32.6c10.9,0,20,4,25.9,11.2l-9.4,8.6c-4.2-4.9-9.5-7.4-15.8-7.4c-11.8,0-20.2,8.3-20.2,20.2
			c0,11.9,8.4,20.2,20.2,20.2c6.3,0,11.6-2.5,15.8-7.5l9.4,8.6c-5.9,7.3-15,11.2-26,11.2C539.6,400.6,525,387,525,368z"/>
		<path d="M594.2,368c0-18.7,14.6-32.6,34.5-32.6c19.8,0,34.5,13.8,34.5,32.6c0,18.8-14.7,32.6-34.5,32.6
			C608.7,400.6,594.2,386.7,594.2,368z M648.3,368c0-12-8.5-20.2-19.7-20.2c-11.3,0-19.7,8.2-19.7,20.2c0,12,8.5,20.2,19.7,20.2
			C639.9,388.2,648.3,380,648.3,368z"/>
		<path d="M690.7,348.4h-20.2v-11.9h54.9v11.9h-20.2v51.1h-14.6V348.4z"/>
		<path d="M751.7,348.4h-20.2v-11.9h54.9v11.9h-20.2v51.1h-14.6V348.4z"/>
		<path d="M798.8,336.5h14.6v63h-14.6V336.5z"/>
		<path d="M827.9,393.3l5-11c5.3,3.9,13.2,6.6,20.8,6.6c8.6,0,12.1-2.9,12.1-6.7c0-11.8-36.6-3.7-36.6-27.1
			c0-10.7,8.6-19.6,26.5-19.6c7.9,0,16,1.9,21.9,5.6l-4.5,11.1c-5.8-3.3-11.9-4.9-17.5-4.9c-8.6,0-12,3.2-12,7.2
			c0,11.6,36.6,3.6,36.6,26.7c0,10.5-8.7,19.5-26.7,19.5C843.5,400.6,833.5,397.6,827.9,393.3z"/>
		<path d="M952.5,336.5v63h-14.6v-25.8h-28.6v25.8h-14.6v-63h14.6v24.8h28.6v-24.8H952.5z"/>
		<path d="M497.3,465.2v22.3h-14.6V465l-24.4-40.5h15.5l16.8,28l16.8-28h14.3L497.3,465.2z"/>
		<path d="M525.8,456c0-18.7,14.6-32.6,34.5-32.6c19.8,0,34.5,13.8,34.5,32.6c0,18.8-14.7,32.6-34.5,32.6
			C540.3,488.6,525.8,474.7,525.8,456z M579.9,456c0-12-8.5-20.2-19.7-20.2c-11.3,0-19.7,8.2-19.7,20.2c0,12,8.5,20.2,19.7,20.2
			C571.5,476.2,579.9,468,579.9,456z"/>
		<path d="M609.6,459.8v-35.3h14.6v34.7c0,12,5.2,16.9,14,16.9c8.9,0,14-5,14-16.9v-34.7h14.4v35.3c0,18.5-10.6,28.8-28.5,28.8
			C620.3,488.6,609.6,478.3,609.6,459.8z"/>
		<path d="M697.6,436.4h-20.2v-11.9h54.9v11.9h-20.2v51.1h-14.6V436.4z"/>
		<path d="M802.4,424.5v63h-14.6v-25.8h-28.6v25.8h-14.6v-63h14.6v24.8h28.6v-24.8H802.4z"/>
		<path d="M463.1,544c0-19,14.6-32.6,34.2-32.6c10.9,0,20,4,25.9,11.2l-9.4,8.6c-4.2-4.9-9.5-7.4-15.8-7.4
			c-11.8,0-20.2,8.3-20.2,20.2c0,11.9,8.4,20.2,20.2,20.2c6.3,0,11.6-2.5,15.8-7.5l9.4,8.6c-5.9,7.3-15,11.3-26,11.3
			C477.7,576.6,463.1,563,463.1,544z"/>
		<path d="M537.5,512.5h14.6v51.1h31.6v11.9h-46.2V512.5z"/>
		<path d="M596.4,512.5H611v63h-14.6V512.5z"/>
		<path d="M687.7,575.5l-0.1-37.8l-18.5,31.1h-6.6l-18.4-30.3v37h-13.7v-63h12.1l23.6,39.1l23.2-39.1h12l0.2,63H687.7z"/>
		<path d="M762.4,562h-29.2l-5.6,13.5h-14.9l28.1-63h14.4l28.2,63h-15.3L762.4,562z M757.8,550.9l-10-24.1l-10,24.1H757.8z"/>
		<path d="M804.2,524.4h-20.2v-11.9h54.9v11.9h-20.2v51.1h-14.6V524.4z"/>
		<path d="M900.1,563.8v11.7h-48.8v-63h47.6v11.7h-33.1v13.7H895v11.3h-29.2v14.6H900.1z"/>
		<path d="M462.1,657.3l4.9-11c5.3,3.9,13.2,6.6,20.8,6.6c8.6,0,12.1-2.9,12.1-6.8c0-11.8-36.6-3.7-36.6-27.1
			c0-10.7,8.6-19.6,26.5-19.6c7.9,0,16,1.9,21.9,5.6l-4.5,11.1c-5.8-3.3-11.9-5-17.5-5c-8.6,0-12,3.2-12,7.2
			c0,11.6,36.6,3.6,36.6,26.7c0,10.5-8.7,19.5-26.7,19.5C477.8,664.6,467.7,661.6,462.1,657.3z"/>
		<path d="M541.1,612.4H521v-11.9h54.9v11.9h-20.2v51.1h-14.6V612.4z"/>
		<path d="M628.4,663.5L616.2,646h-0.7h-12.7v17.5h-14.6v-63h27.3c16.8,0,27.4,8.7,27.4,22.9c0,9.5-4.8,16.4-13,19.9l14.1,20.2
			H628.4z M614.7,612.4h-11.9v22h11.9c8.9,0,13.4-4.1,13.4-11C628.1,616.4,623.6,612.4,614.7,612.4z"/>
		<path d="M658.9,600.5h14.6v63h-14.6V600.5z"/>
		<path d="M715.8,638.8l-8.5,8.8v15.9h-14.5v-63h14.5v29.4l27.9-29.4h16.2l-26.1,28.1l27.6,34.9h-17L715.8,638.8z"/>
		<path d="M812.8,651.8v11.7H764v-63h47.6v11.7h-33.1v13.7h29.2v11.3h-29.2v14.6H812.8z"/>
	</g>
	<g>
		<path d="M242.3,636.5c-7.5-5.3-8.6-14.9-8.1-23.4c0.2-4.2,0.7-8.3,0.8-12.5c0.2,0,0.5,0,0.7,0c31.8-0.5,60.6-18.1,77.5-43.8
			l14.7,8.9l3.1-5.1l-14.7-8.8c4.9-8.6,8.5-17.9,10.6-27.7l18.6,5l1.6-5.8L328,518c0.7-4.7,1-9.5,0.9-14.4c0.1-3.9-0.1-7.8-0.5-11.6
			l15.9-4.4l-1.6-5.8l-15.1,4.2c-1.3-7.9-3.7-15.5-6.8-22.6l15.7-10.1l-3.2-5l-15,9.7c-6.4-12.3-15.4-23.1-26.4-31.7l50.1-57.9
			c2.1-3.1-0.1-7.3-3.8-7.3h-14.4c-1.7,0-3.3,0.9-4.1,2.5l-35.8,57.1c-2.6-1.6-5.2-3.1-8-4.5l38-68.5c1.5-3.1-0.7-6.7-4.2-6.7h-15.2
			c-2,0-3.8,1.3-4.4,3.2l-25,67.3c-2.4-0.8-4.8-1.6-7.3-2.3l20.2-72.4c0.8-3-1.4-5.9-4.5-5.9h-15.7c-2.4,0-4.4,1.8-4.6,4.2l-7,71.7
			c-3.5-0.5-7.1-0.8-10.7-0.9l7.6-80.3c0.3-2.7-1.8-5.1-4.6-5.1h-15.9c-2.7,0-4.8,2.3-4.6,5l5.3,80.8c-3.3,0.3-6.6,0.7-9.8,1.3
			l-7.2-72.9c-0.2-2.4-2.2-4.2-4.6-4.2h-15.7c-3.1,0-5.3,2.9-4.5,5.9l20.7,74.1c-2.4,0.8-4.7,1.6-7,2.5l-25.7-69.3
			c-0.6-1.9-2.4-3.2-4.4-3.2h-15.2c-3.4,0-5.7,3.6-4.2,6.7l39.2,70.7c-2.6,1.4-5.2,3-7.7,4.6L139.8,363c-0.8-1.5-2.4-2.5-4.1-2.5
			h-14.4c-3.7,0-5.9,4.2-3.8,7.3l52.1,60.3c-10.1,8.2-18.5,18.4-24.5,29.9l-15.3-9.8l-3.2,5l15.9,10.2c-3.2,7.1-5.6,14.7-6.9,22.5
			l-15.2-4.2l-1.6,5.8l15.9,4.4c-0.4,3.9-0.6,7.8-0.6,11.9c0.1,4.8,0.5,9.5,1.2,14.1l-19.4,5.2l1.6,5.8l19-5.1
			c2.2,10.5,6.1,20.2,11.3,29l-0.8-1.3l-14.9,8.9l3.1,5.1l14.9-8.9l-1.6-2.6c15.2,25,41.5,42.2,73,45.8c0,6.1-1.2,12.4-1.3,18.5
			c-0.2,7.2,0.2,14.5,1.3,21.7c2.1,13.9,7.3,27,16.4,37.7c1,1.1,3-0.1,2.5-1.5c-4.4-11.6-9.8-28,2.1-37.2
			C243.2,638.3,243.3,637.2,242.3,636.5z M145.3,511.9c-2.1-20.6,1.7-35.7,11.7-52.3c-0.4,5.4,1.9,8.1,4.7,10.8
			c5.2,4.8,6.8,12,10.7,17.7c1.5,2.2-0.4,4.8-1.8,7c-6.2,9.4-5.9,16,1.6,23.8c5.1,5.3,5.9,11.5,5.4,18.4c-0.5,6.7-0.7,13.5-0.5,20.2
			c0.1,8,4,14.4,9.7,19.7C161.6,562.6,148.2,540.4,145.3,511.9z M187.1,577.5c3.3-1.1,3.1-3.7,2.5-6.2c-1.8-6.7,1.3-11.4,6.5-14.8
			c4-2.7,7.2-5.8,9.6-10c0.7-1.2,1.5-2.8,2.6-3.2c9.6-3.4,12.8-12.1,17.4-19.8c4.2-6.9,4-10.8-3.2-13.8c-5.4-2.2-8.3-6-11.3-10.6
			c-6-9.4-16.1-13.6-25.9-17.9c-0.7-0.3-1.8,0-2.7,0.2c-9.1,2.5-13-0.9-10.6-10.1c1-3.8,2.2-6.1-3.1-6.5c-1.9-0.2-2.6-2-2.1-3.8
			c1.2-4.8,4.7-7.3,9.3-8.5c4-1,6.8,0.5,8.1,4.5c0.4,1.3,0.8,2.9,2.5,3c0.6,0,1.7-1,1.9-1.7c2.7-12,13.4-12.3,22.2-14.6
			c4.3-1.1,8.9-2.1,13.4-2.8c6.8-0.9,3.3-7.6,3.1-11.6c-0.2-3-3.1-5.2-6.8-3.4c-2.7,1.3-5.7,1.9-7.9,4.2c-0.8,0.8-2.2,1.2-3.1,0.1
			c-1.2-1.3-0.4-2.5,0.5-3.7c3.2-4.1,7.8-3.6,12.1-3.7c2.6-0.1,4.8,2,7.9,0.3c2.3-1.3,2,2.3,2.6,3.8c2.9,7.3,4.4,7.6,10,2.4
			c3.2-3,6.7-5.7,10.1-8.4c2.6-2.1,5.4-0.8,7.9,0.2c3.5,1.4,6.8,3,10.2,4.5c2.8,1.2,4.5,2.4,3.2,6.2c-1.5,4.5,1.8,7.2,5.3,9.5
			c2.6,1.7,6,3.1,5.3,7.3c-0.7,4-3.8,4.8-7,5.8c-7,2.3-6.6,5.3,1.7,12.9c-5.1,1.8-8.2,5.8-12.6,8.3c-2.8,1.6-4,4.3-4.3,7.6
			c-0.2,2.5-0.5,5.1-1.1,7.6c-3.5,13.8,4.6,24.1,19.1,24.2c11,0.1,11.8,1,10.3,11.9c-0.2,1.6-0.4,3.4,0.1,4.8
			c2,5.5,0.4,9.9-3.2,14.1c-2.4,2.7-2.9,6.2-2.5,9.8c1,9.9-6,21.8-15.2,26.1c-24.6,11.7-49.4,11.5-74.4,0.9
			C192.3,581.3,189.4,579.8,187.1,577.5z"/>
		<path d="M96.5,595.7c22.7,35.1,61.1,64.4,101.4,75.4c-44.5-35.9-35.9-62.9-53.6-91c1.4,8.4,2,16.9,1.6,25.4
			c-40.6-33.3-67.7-77.4-74.8-129.4c0.1-0.3,0.1-0.6,0.2-0.9c-12,26.9-19.7,55.7-22.9,85c-1.2,10.7-1.7,21.7,1.2,32.1
			c5.7,20.6,23.4,35.3,41.2,47c-10.8,0.1-21.5,0.3-32.3,0.4c34.2,30.3,81.9,44.6,127.1,38.3c-39.5-13.5-76.1-45.1-96.5-81.6
			c-20.1-35.8-26.7-79-18.2-119.1C64.8,518.1,74.1,561.1,96.5,595.7z"/>
		<path d="M407.8,592.3c2.9-10.4,2.3-21.4,1.2-32.1c-3.2-29.3-10.9-58.1-22.9-85c0.1,0.3,0.1,0.6,0.2,0.9
			c-7.1,52-34.2,96.1-74.8,129.4c-0.3-8.5,0.2-17,1.6-25.4c-17.6,28-9.1,55.1-53.6,91c40.3-11,78.8-40.3,101.4-75.4
			c22.4-34.7,31.6-77.6,25.6-118.4c8.4,40.2,1.8,83.3-18.2,119.1c-20.4,36.4-57,68-96.5,81.6c45.2,6.4,93-8,127.1-38.3
			c-10.8-0.1-21.5-0.3-32.3-0.4C384.4,627.6,402.1,612.9,407.8,592.3z"/>
	</g>
</g>
</svg>
